<?xml version="1.0" encoding="UTF-8"?>
<svg version="1.1" xmlns="http://www.w3.org/2000/svg" width="207" height="191">
<path d="M0 0 C2.625 0.375 2.625 0.375 5 1 C4.87625 2.134375 4.7525 3.26875 4.625 4.4375 C4.66481559 11.97591813 10.1491644 17.28751297 15.0625 22.5 C25.25667719 32.33850783 25.25667719 32.33850783 38 37 C49.45356685 33.23977239 60.72437295 21.75939715 68 12.4375 C69.32460766 9.20876883 69.12811963 6.45922988 69 3 C69.33 2.01 69.66 1.02 70 0 C72.1875 0 72.1875 0 75 1 C77.05881675 3.43670083 78.48556285 6.20274551 80 9 C80.78117187 10.36898438 80.78117187 10.36898438 81.578125 11.765625 C86.49232684 20.49668265 88.63050345 25.37935006 86 35.125 C83.43399814 45.38722549 81.65655302 55.688016 80 66.125 C78.27995416 76.91879586 76.47047847 87.57348019 73.47265625 98.10400391 C71.29367039 105.87295432 72.09973167 112.58483282 73.4375 120.375 C73.84410473 122.78739172 74.24436152 125.19991073 74.62402344 127.61669922 C74.87373252 129.19959537 75.14251038 130.77960608 75.43066406 132.35595703 C76.3024739 137.89112706 75.62472107 141.07425711 72.875 146.125 C72.55023682 146.72393066 72.22547363 147.32286133 71.89086914 147.93994141 C70.95356544 149.64139416 69.9777931 151.32148865 69 153 C68.54753906 153.80953125 68.09507812 154.6190625 67.62890625 155.453125 C66.4375 157.375 66.4375 157.375 64 160 C61.1875 160.55859375 61.1875 160.55859375 58 160 C55.85564207 157.9105474 54.27880947 156.08779425 52.5625 153.6875 C51.85299194 152.73713867 51.85299194 152.73713867 51.12915039 151.76757812 C44.09623738 142.23548422 38.43920427 133.99336895 37 122 C36.78085938 122.95777344 36.56171875 123.91554688 36.3359375 124.90234375 C34.58123317 132.34448231 32.56341804 139.56520779 29.9375 146.75 C26.69010297 155.64926262 24.07292817 164.5582321 23 174 C21.35 174.33 19.7 174.66 18 175 C16.25018531 171.86587924 15.45673107 168.97708856 14.7734375 165.4609375 C14.55042969 164.34058105 14.32742187 163.22022461 14.09765625 162.06591797 C13.85917969 160.84791504 13.62070313 159.62991211 13.375 158.375 C11.11959551 147.15606272 8.65330299 136.00638717 6 124.875 C5.31590793 121.99621203 4.63250785 119.11725991 3.94921875 116.23828125 C3.78303543 115.53838577 3.61685211 114.8384903 3.44563293 114.11738586 C-1.77619528 92.09272318 -6.40457169 69.98633373 -10.0390625 47.640625 C-10.73298348 43.43613848 -11.57466001 39.31989824 -12.625 35.1875 C-15.15014344 24.10054208 -15.15014344 24.10054208 -12.60546875 19.453125 C-11.39633248 17.54590353 -10.15438518 15.65914323 -8.8828125 13.79296875 C-6.70417945 10.56117905 -4.86587724 7.21785022 -3.04296875 3.77734375 C-2 2 -2 2 0 0 Z M29 98 C27.515 101.96 27.515 101.96 26 106 C28.64 106.33 31.28 106.66 34 107 C33.44271087 103.65626525 32.64826111 100.96687001 31 98 C30.34 98 29.68 98 29 98 Z " fill="#1F1F1F" transform="translate(66,14)"/>
<path d="M0 0 C4.5212058 -0.27217961 6.06025758 -0.24577188 9.7109375 2.734375 C10.3503125 3.559375 10.9896875 4.384375 11.6484375 5.234375 C13.2984375 4.574375 14.9484375 3.914375 16.6484375 3.234375 C21.06226351 8.59402087 24.62245849 13.64209146 26.921875 20.19921875 C28.02021555 23.2757533 29.33938995 26.24226632 30.6484375 29.234375 C33.97767431 24.24051979 36.54130558 18.85339344 38.6484375 13.234375 C38.9784375 13.234375 39.3084375 13.234375 39.6484375 13.234375 C38.76160347 25.76674013 37.85504317 38.31565895 33.6484375 50.234375 C32.9884375 50.234375 32.3284375 50.234375 31.6484375 50.234375 C32.14273859 55.17738587 32.76897176 60.03230802 33.6484375 64.921875 C33.98867792 67.02493585 34.32163883 69.12918354 34.6484375 71.234375 C34.84566406 72.39839844 35.04289062 73.56242187 35.24609375 74.76171875 C36.10058414 81.37504351 36.17045371 85.4769321 32.3359375 91.109375 C30.41015625 93.5390625 30.41015625 93.5390625 28.6484375 95.234375 C27.9884375 95.234375 27.3284375 95.234375 26.6484375 95.234375 C26.6484375 95.894375 26.6484375 96.554375 26.6484375 97.234375 C22.57778864 97.31918018 20.59602624 97.05947471 17.47265625 94.33984375 C11.6132639 87.88058673 9.44944734 83.22598844 9.1484375 74.484375 C9.27165327 64.43846558 9.27165327 64.43846558 5.21875 55.796875 C4.67992188 55.384375 4.14109375 54.971875 3.5859375 54.546875 C0.6484375 52.234375 0.6484375 52.234375 -0.2265625 48.921875 C-0.2678125 48.035 -0.3090625 47.148125 -0.3515625 46.234375 C1.1334375 45.739375 1.1334375 45.739375 2.6484375 45.234375 C1.4934375 44.863125 0.3384375 44.491875 -0.8515625 44.109375 C-6.50706058 42.00617376 -11.10691156 38.47902594 -15.3515625 34.234375 C-15.3515625 33.244375 -15.3515625 32.254375 -15.3515625 31.234375 C-10.80781612 29.84152564 -8.13333546 30.73257084 -3.7890625 32.484375 C-2.67402344 32.92265625 -1.55898437 33.3609375 -0.41015625 33.8125 C2.29134553 35.06837056 4.32745598 36.40366823 6.6484375 38.234375 C8.79577677 38.93952346 8.79577677 38.93952346 10.6484375 39.234375 C10.6484375 38.574375 10.6484375 37.914375 10.6484375 37.234375 C9.8028125 36.96625 8.9571875 36.698125 8.0859375 36.421875 C4.6484375 35.234375 4.6484375 35.234375 1.4609375 33.796875 C-3.29343485 31.69809802 -8.32851381 30.51511617 -13.3515625 29.234375 C-12.6915625 27.914375 -12.0315625 26.594375 -11.3515625 25.234375 C-6.79606809 25.04456273 -2.58561939 25.01994351 1.8359375 26.234375 C5.32064332 27.1483962 8.07602152 27.4129958 11.6484375 27.234375 C11.01035156 27.04101562 10.37226562 26.84765625 9.71484375 26.6484375 C8.47541016 26.25785156 8.47541016 26.25785156 7.2109375 25.859375 C5.97537109 25.47652344 5.97537109 25.47652344 4.71484375 25.0859375 C2.6484375 24.234375 2.6484375 24.234375 1.6484375 22.234375 C-1.38090741 21.57665072 -1.38090741 21.57665072 -4.3515625 21.234375 C-4.3515625 20.574375 -4.3515625 19.914375 -4.3515625 19.234375 C-6.0015625 19.234375 -7.6515625 19.234375 -9.3515625 19.234375 C-8.3515625 17.234375 -8.3515625 17.234375 -6.3515625 15.234375 C-0.59979588 14.58498199 1.76678836 15.21240172 6.6484375 18.234375 C9.95300623 19.07711664 13.28469704 19.67919454 16.6484375 20.234375 C15.9678125 19.595 15.2871875 18.955625 14.5859375 18.296875 C12.77887037 16.56989948 11.51672179 15.01652368 10.21484375 12.86328125 C8.53052057 10.17088434 7.14399926 8.21421647 4.6484375 6.234375 C-0.48749036 5.55083881 -5.77612677 5.92507527 -10.44921875 8.30078125 C-12.80195524 9.45540963 -14.49768514 9.43595963 -17.1015625 9.359375 C-17.90078125 9.34132813 -18.7 9.32328125 -19.5234375 9.3046875 C-20.12671875 9.28148438 -20.73 9.25828125 -21.3515625 9.234375 C-21.3515625 8.574375 -21.3515625 7.914375 -21.3515625 7.234375 C-20.72507812 6.96882813 -20.09859375 6.70328125 -19.453125 6.4296875 C-18.63585937 6.07648438 -17.81859375 5.72328125 -16.9765625 5.359375 C-15.75839844 4.83730469 -15.75839844 4.83730469 -14.515625 4.3046875 C-12.21353951 3.30991433 -12.21353951 3.30991433 -10.3515625 1.234375 C-6.8908722 0.62723635 -3.48958799 0.34779947 0 0 Z " fill="#F7F7F7" transform="translate(103.3515625,64.765625)"/>
<path d="M0 0 C0.99 0 1.98 0 3 0 C4.48765536 1.94753222 5.80594932 3.87948303 7.125 5.9375 C12.05981477 13.30886751 18.03640573 19.3155115 24.46142578 25.40014648 C25.1779834 26.08665283 25.89454102 26.77315918 26.6328125 27.48046875 C27.28137207 28.08785889 27.92993164 28.69524902 28.59814453 29.32104492 C30 31 30 31 30 34 C28.2316207 35.77286757 26.30219799 37.24482113 24.3359375 38.79296875 C17.96559181 44.81177363 14.77007377 51.22813295 12.125 59.5 C11.81820312 60.4178125 11.51140625 61.335625 11.1953125 62.28125 C10.45013067 64.51679549 9.71876841 66.75585242 9 69 C8.34 69 7.68 69 7 69 C3.91930759 61.10818369 0.97602382 53.19902199 -1.7890625 45.19140625 C-2.94020874 41.9794171 -2.94020874 41.9794171 -4.54296875 38.9921875 C-6.07157096 35.85302049 -6.91598486 32.96288154 -7.6875 29.5625 C-7.93886719 28.49128906 -8.19023438 27.42007813 -8.44921875 26.31640625 C-9.75882644 18.43089611 -8.54960644 14.20847573 -4.5 7.5625 C-4.07074219 6.83095703 -3.64148437 6.09941406 -3.19921875 5.34570312 C-2.14632537 3.55578437 -1.07499718 1.77673146 0 0 Z " fill="#F6F6F6" transform="translate(63,20)"/>
<path d="M0 0 C0.99 0 1.98 0 3 0 C3.24234375 0.67546875 3.4846875 1.3509375 3.734375 2.046875 C5.60579105 7.0277208 7.14716026 10.2800168 11 14 C12.53594714 18.93697295 11.50769655 22.15950054 10 27 C9.67016847 28.83029465 9.35887359 30.66399073 9.0625 32.5 C8.26461406 37.03990914 7.01008881 40.82520016 5 45 C1.91810871 51.57558702 -0.54363253 58.27656065 -2.8515625 65.15625 C-4 68 -4 68 -6 69 C-6.18433594 68.15179688 -6.36867187 67.30359375 -6.55859375 66.4296875 C-9.69599098 53.7406587 -15.54708923 43.21491678 -25.6640625 34.6484375 C-27 33 -27 33 -26.87109375 30.99609375 C-24.65166856 25.91032572 -20.31016653 22.18752093 -16.125 18.6875 C-10.53044612 13.93963148 -6.26090251 8.0979542 -1.953125 2.1953125 C-1.30859375 1.47085937 -0.6640625 0.74640625 0 0 Z " fill="#F6F6F6" transform="translate(140,21)"/>
<path d="M0 0 C0.33 0 0.66 0 1 0 C0.66374982 6.99400372 -0.74272627 13.48737318 -2.62792969 20.20117188 C-4.71437127 27.91143491 -3.88727002 34.66052527 -2.5625 42.375 C-2.15589527 44.78739172 -1.75563848 47.19991073 -1.37597656 49.61669922 C-1.12626748 51.19959537 -0.85748962 52.77960608 -0.56933594 54.35595703 C0.3024739 59.89112706 -0.37527893 63.07425711 -3.125 68.125 C-3.44976318 68.72393066 -3.77452637 69.32286133 -4.10913086 69.93994141 C-5.04643456 71.64139416 -6.0222069 73.32148865 -7 75 C-7.45246094 75.80953125 -7.90492188 76.6190625 -8.37109375 77.453125 C-9.5625 79.375 -9.5625 79.375 -12 82 C-14.8125 82.55859375 -14.8125 82.55859375 -18 82 C-20.14435793 79.9105474 -21.72119053 78.08779425 -23.4375 75.6875 C-24.14700806 74.73713867 -24.14700806 74.73713867 -24.87084961 73.76757812 C-31.90376262 64.23548422 -37.56079573 55.99336895 -39 44 C-39.21914062 44.95777344 -39.43828125 45.91554687 -39.6640625 46.90234375 C-41.41876683 54.34448231 -43.43658196 61.56520779 -46.0625 68.75 C-49.30989703 77.64926262 -51.92707183 86.5582321 -53 96 C-55.475 96.495 -55.475 96.495 -58 97 C-59.93164927 93.60779743 -60.69476443 90.32421706 -61.47265625 86.51171875 C-61.73240234 85.24779297 -61.99214844 83.98386719 -62.25976562 82.68164062 C-62.45759644 81.69707886 -62.45759644 81.69707886 -62.65942383 80.69262695 C-63.0593185 78.70332659 -63.46737042 76.71584144 -63.87695312 74.72851562 C-65.07944102 68.8300276 -66.19080595 62.96715358 -67 57 C-65.22293791 59.66559313 -64.12451727 62.0280615 -63 65 C-59.8386528 58.42594467 -58.20343442 51.55614226 -56.4375 44.5 C-55.83275424 42.11439994 -55.22730613 39.72897779 -54.62109375 37.34375 C-54.33911133 36.23394775 -54.05712891 35.12414551 -53.76660156 33.98071289 C-52.24831808 28.07729791 -50.49831334 22.56442518 -48 17 C-46.1875 17.1875 -46.1875 17.1875 -44 18 C-42.375 20.4375 -42.375 20.4375 -41 23 C-40.34 23.66 -39.68 24.32 -39 25 C-38.46923828 27.57861328 -38.46923828 27.57861328 -38.0703125 30.8203125 C-37.91433594 31.9959375 -37.75835937 33.1715625 -37.59765625 34.3828125 C-37.28558796 36.85356805 -36.97820128 39.32491996 -36.67578125 41.796875 C-34.9551542 54.63862811 -29.95363919 61.90605859 -22 72 C-21.401875 72.76699219 -20.80375 73.53398437 -20.1875 74.32421875 C-18.86925122 75.94896037 -17.44465697 77.48654984 -16 79 C-15.01 79 -14.02 79 -13 79 C-11.28073508 76.71066302 -9.81715907 74.51914538 -8.375 72.0625 C-7.96983154 71.37317383 -7.56466309 70.68384766 -7.1472168 69.97363281 C-1.94769341 60.76990362 -2.83524098 54.10220878 -5 44 C-5.55717852 41.23208089 -6.09214555 38.46018715 -6.625 35.6875 C-6.7600293 35.01775146 -6.89505859 34.34800293 -7.03417969 33.65795898 C-7.79909607 29.71392034 -8.13693723 26.01475074 -8 22 C-7.01 22.33 -6.02 22.66 -5 23 C-4.81630859 21.52853516 -4.81630859 21.52853516 -4.62890625 20.02734375 C-4.02394744 15.79263208 -3.00875631 11.69989627 -1.9375 7.5625 C-1.75123047 6.83095703 -1.56496094 6.09941406 -1.37304688 5.34570312 C-0.9186242 3.56296802 -0.45977534 1.78136213 0 0 Z M-47 20 C-48.485 23.96 -48.485 23.96 -50 28 C-47.36 28.33 -44.72 28.66 -42 29 C-42.55728913 25.65626525 -43.35173889 22.96687001 -45 20 C-45.66 20 -46.32 20 -47 20 Z " fill="#1A1A1A" transform="translate(142,92)"/>
<path d="M0 0 C1.64630328 0.14042877 3.29204179 0.28749329 4.9375 0.4375 C6.31228516 0.55931641 6.31228516 0.55931641 7.71484375 0.68359375 C10 1 10 1 11 2 C11.3125 5.25 11.3125 5.25 11 9 C10.34386719 9.66644531 9.68773438 10.33289063 9.01171875 11.01953125 C5.91645901 15.60532384 6.41867423 20.03272464 6.5 25.4375 C6.48453125 26.46166016 6.4690625 27.48582031 6.453125 28.54101562 C6.48565395 34.82316998 7.34242636 37.79095558 11 43 C10.59401103 47.71984377 9.53314161 52.22378675 8.37109375 56.80859375 C8.05849609 58.04931641 7.74589844 59.29003906 7.42382812 60.56835938 C7.09833984 61.84517578 6.77285156 63.12199219 6.4375 64.4375 C6.10448881 65.75447417 5.7718036 67.07153081 5.43945312 68.38867188 C4.62949916 71.59327233 3.81625173 74.79699896 3 78 C2.34 78 1.68 78 1 78 C-0.12898402 75.14735322 -1.25327567 72.29300063 -2.375 69.4375 C-2.85066406 68.23770508 -2.85066406 68.23770508 -3.3359375 67.01367188 C-6.11508258 59.92106204 -8.09584334 52.94926133 -9.4375 45.4375 C-10.40389109 40.10052725 -11.45602212 34.79746561 -12.625 29.5 C-14.33878374 21.57711497 -15.16898945 14.1114934 -15 6 C-11.19000031 8.53999979 -10.53881255 10.74994628 -9 15 C-9 16.32 -9 17.64 -9 19 C-5.90080296 17.45040148 -5.67165866 14.93634002 -4.5 11.75 C-4.0771875 10.61046875 -3.654375 9.4709375 -3.21875 8.296875 C-2.8165625 7.20890625 -2.414375 6.1209375 -2 5 C-1.33949358 3.33088242 -0.67528203 1.66319464 0 0 Z " fill="#F1F1F1" transform="translate(79,76)"/>
<path d="M0 0 C1.4540625 0.0309375 1.4540625 0.0309375 2.9375 0.0625 C2.9375 0.3925 2.9375 0.7225 2.9375 1.0625 C1.968125 1.371875 0.99875 1.68125 0 2 C-2.90315792 2.75773342 -2.90315792 2.75773342 -4.0625 4.0625 C-2.7425 4.3925 -1.4225 4.7225 -0.0625 5.0625 C-0.0625 5.7225 -0.0625 6.3825 -0.0625 7.0625 C1.9175 7.0625 3.8975 7.0625 5.9375 7.0625 C6.2675 8.0525 6.5975 9.0425 6.9375 10.0625 C10.2375 10.7225 13.5375 11.3825 16.9375 12.0625 C16.6075 12.7225 16.2775 13.3825 15.9375 14.0625 C13.9787957 13.92173685 12.02053907 13.7747324 10.0625 13.625 C8.97195312 13.54378906 7.88140625 13.46257812 6.7578125 13.37890625 C3.9375 13.0625 3.9375 13.0625 1.9375 12.0625 C-0.20496318 11.82747095 -0.20496318 11.82747095 -2.5625 11.8125 C-3.3565625 11.78671875 -4.150625 11.7609375 -4.96875 11.734375 C-5.6596875 11.84265625 -6.350625 11.9509375 -7.0625 12.0625 C-8.0525 13.5475 -8.0525 13.5475 -9.0625 15.0625 C-7.33 15.2171875 -7.33 15.2171875 -5.5625 15.375 C1.922761 16.3238359 8.30303565 19.62679525 14.9375 23.0625 C14.9375 23.7225 14.9375 24.3825 14.9375 25.0625 C9.19600338 24.32166173 4.1510705 21.5860653 -1.0234375 19.1328125 C-4.52178243 17.52876788 -7.20507458 16.71182496 -11.0625 17.0625 C-8.64608325 22.19738558 -4.87324355 25.24417059 -0.0625 28.0625 C2.63066358 29.02728356 5.10625655 29.55692081 7.9375 30.0625 C7.6075 30.7225 7.2775 31.3825 6.9375 32.0625 C5.9475 32.0625 4.9575 32.0625 3.9375 32.0625 C5.71327827 37.22669378 5.71327827 37.22669378 9.5 40.9375 C13.0937458 44.07050916 13.43052411 47.52414954 13.9375 52.0625 C14.34893319 59.08475793 14.34893319 59.08475793 14.42089844 62.30175781 C14.69007954 69.42981335 17.64987154 74.35509877 22.2421875 79.58203125 C24.94548216 81.94274248 27.44201993 82.43331359 30.9375 83.0625 C30.9375 82.4025 30.9375 81.7425 30.9375 81.0625 C32.60416667 79.39583333 34.27083333 77.72916667 35.9375 76.0625 C38.76010556 72.26658217 39.26598715 69.7708158 38.9375 65.0625 C41.42036165 68.78679248 41.13550837 70.34984894 40.54736328 74.62451172 C39.50026338 78.81039625 37.28234198 82.09180345 34.875 85.625 C34.40255859 86.34751953 33.93011719 87.07003906 33.44335938 87.81445312 C32.28987006 89.57381562 31.11579344 91.31965217 29.9375 93.0625 C21.46596007 91.25076907 15.9356587 80.81135142 11.31591797 73.9230957 C6.53170134 66.33287864 5.41657923 58.5709753 4.47265625 49.76953125 C4.39208984 49.04822021 4.31152344 48.32690918 4.22851562 47.58374023 C4.01150457 45.545552 3.83469159 43.50320156 3.66015625 41.4609375 C2.84801177 37.64166348 1.77571758 36.59682762 -1.0625 34.0625 C-1.0625 33.0725 -1.0625 32.0825 -1.0625 31.0625 C-2.3825 31.0625 -3.7025 31.0625 -5.0625 31.0625 C-6.0525 35.0225 -7.0425 38.9825 -8.0625 43.0625 C-13.86965632 36.09391242 -14.44987353 31.66694159 -14.5 22.75 C-14.53287109 21.72970703 -14.56574219 20.70941406 -14.59960938 19.65820312 C-14.64868692 12.75611588 -13.68409296 9.23897616 -9.0625 4.0625 C-8.0725 4.3925 -7.0825 4.7225 -6.0625 5.0625 C-5.753125 4.423125 -5.44375 3.78375 -5.125 3.125 C-3.5525 0.0725 -3.5525 0.0725 0 0 Z " fill="#808080" transform="translate(99.0625,78.9375)"/>
<path d="M0 0 C2.625 0.375 2.625 0.375 5 1 C4.87625 2.134375 4.7525 3.26875 4.625 4.4375 C4.66678791 12.34934408 10.61551441 17.76147029 15.875 23.0625 C17.24260048 24.38270838 18.61497841 25.69807971 20 27 C19.01 27.33 18.02 27.66 17 28 C10.52070113 21.92565731 4.73594289 15.54911877 0 8 C0 7.34 0 6.68 0 6 C-0.99 6 -1.98 6 -3 6 C-3.20625 6.78375 -3.4125 7.5675 -3.625 8.375 C-5.17422663 12.45932474 -7.31044846 15.73905695 -9.7578125 19.33984375 C-13.59995594 27.56783016 -9.0499568 38.19035093 -6.18798828 46.30126953 C-3.55484289 53.42772632 -0.75033571 60.47747646 2.4375 67.375 C4 71 4 71 4 75 C4.66 75 5.32 75 6 75 C6.09796875 74.43152344 6.1959375 73.86304687 6.296875 73.27734375 C7.36323919 67.77085969 8.98284249 63.7268801 12 59 C13.485 59.495 13.485 59.495 15 60 C16.86295889 59.99021368 18.72588431 59.92087499 20.5859375 59.81640625 C21.68164062 59.77708984 22.77734375 59.73777344 23.90625 59.69726562 C26.21217526 59.60767731 28.51720275 59.4906267 30.8203125 59.34570312 C34.0640429 59.25623404 36.84038406 59.24855149 40 60 C42.48101749 62.36199484 43.80507834 64.81069932 45 68 C42.31264369 68.14929757 40.48472089 68.25017853 38.0625 67 C35.19198684 65.60823604 33.14573597 65.59841668 30 66 C28.08743288 67.88077873 28.08743288 67.88077873 27 70 C26.01 69.67 25.02 69.34 24 69 C23.67 67.35 23.34 65.7 23 64 C19.7 63.67 16.4 63.34 13 63 C12.61908203 64.32064453 12.61908203 64.32064453 12.23046875 65.66796875 C11.88628906 66.82941406 11.54210937 67.99085937 11.1875 69.1875 C10.85105469 70.33605469 10.51460937 71.48460938 10.16796875 72.66796875 C9.07355198 75.79016776 7.92627443 78.31534982 6 81 C5.34 81 4.68 81 4 81 C3.72285156 80.21753906 3.44570312 79.43507813 3.16015625 78.62890625 C2.79792969 77.61699219 2.43570313 76.60507813 2.0625 75.5625 C1.70285156 74.55316406 1.34320313 73.54382813 0.97265625 72.50390625 C0.23122361 70.09686255 0.23122361 70.09686255 -1 69 C-0.80677891 81.26075657 1.47525061 92.5212162 4.38964844 104.39550781 C5.00170909 107.00729303 5.53328614 109.62428741 6.04296875 112.2578125 C6.79049806 116.0800212 7.71429988 119.77808555 8.875 123.5 C9.2153125 124.59183594 9.555625 125.68367188 9.90625 126.80859375 C11.20733056 130.60496095 12.75804737 134.24648234 14.4609375 137.87890625 C15.15979791 140.62877005 14.3364198 141.58566957 13 144 C8.99988446 136.86052832 6.73998249 130.04751233 5.0625 122.0625 C4.81508057 120.93642334 4.56766113 119.81034668 4.31274414 118.65014648 C3.79360867 116.28479556 3.27959241 113.91831573 2.77050781 111.55078125 C2.02417021 108.11138514 1.24843832 104.68018145 0.4609375 101.25 C-3.60062131 83.4844073 -7.1132606 65.62914681 -10.0390625 47.640625 C-10.73298348 43.43613848 -11.57466001 39.31989824 -12.625 35.1875 C-15.15014344 24.10054208 -15.15014344 24.10054208 -12.60546875 19.453125 C-11.39633248 17.54590353 -10.15438518 15.65914323 -8.8828125 13.79296875 C-6.70417945 10.56117905 -4.86587724 7.21785022 -3.04296875 3.77734375 C-2 2 -2 2 0 0 Z " fill="#101010" transform="translate(66,14)"/>
<path d="M0 0 C4.5212058 -0.27217961 6.06025758 -0.24577188 9.7109375 2.734375 C10.3503125 3.559375 10.9896875 4.384375 11.6484375 5.234375 C13.2984375 4.574375 14.9484375 3.914375 16.6484375 3.234375 C21.06226351 8.59402087 24.62245849 13.64209146 26.921875 20.19921875 C28.02021555 23.2757533 29.33938995 26.24226632 30.6484375 29.234375 C33.97767431 24.24051979 36.54130558 18.85339344 38.6484375 13.234375 C38.9784375 13.234375 39.3084375 13.234375 39.6484375 13.234375 C37.52381095 43.25870278 37.52381095 43.25870278 33.6484375 50.234375 C31.58740234 50.84423828 31.58740234 50.84423828 29.6484375 51.234375 C29.55344971 50.49276123 29.45846191 49.75114746 29.3605957 48.98706055 C28.91718679 45.62846829 28.43952114 42.2756278 27.9609375 38.921875 C27.81205078 37.75462891 27.66316406 36.58738281 27.50976562 35.38476562 C27.34541016 34.26650391 27.18105469 33.14824219 27.01171875 31.99609375 C26.79962769 30.4486145 26.79962769 30.4486145 26.58325195 28.86987305 C25.85239901 26.0409717 25.85239901 26.0409717 23.23901367 24.41723633 C20.68098062 23.24923424 18.42478424 22.63099596 15.6484375 22.234375 C15.9784375 21.574375 16.3084375 20.914375 16.6484375 20.234375 C15.9678125 19.595 15.2871875 18.955625 14.5859375 18.296875 C12.77887037 16.56989948 11.51672179 15.01652368 10.21484375 12.86328125 C8.53052057 10.17088434 7.14399926 8.21421647 4.6484375 6.234375 C-0.48749036 5.55083881 -5.77612677 5.92507527 -10.44921875 8.30078125 C-12.80195524 9.45540963 -14.49768514 9.43595963 -17.1015625 9.359375 C-17.90078125 9.34132813 -18.7 9.32328125 -19.5234375 9.3046875 C-20.12671875 9.28148438 -20.73 9.25828125 -21.3515625 9.234375 C-21.3515625 8.574375 -21.3515625 7.914375 -21.3515625 7.234375 C-20.72507812 6.96882813 -20.09859375 6.70328125 -19.453125 6.4296875 C-18.63585937 6.07648438 -17.81859375 5.72328125 -16.9765625 5.359375 C-15.75839844 4.83730469 -15.75839844 4.83730469 -14.515625 4.3046875 C-12.21353951 3.30991433 -12.21353951 3.30991433 -10.3515625 1.234375 C-6.8908722 0.62723635 -3.48958799 0.34779947 0 0 Z " fill="#969696" transform="translate(103.3515625,64.765625)"/>
<path d="M0 0 C0.33 0 0.66 0 1 0 C0.66374982 6.99400372 -0.74272627 13.48737318 -2.62792969 20.20117188 C-4.71437127 27.91143491 -3.88727002 34.66052527 -2.5625 42.375 C-2.15589527 44.78739172 -1.75563848 47.19991073 -1.37597656 49.61669922 C-1.12626748 51.19959537 -0.85748962 52.77960608 -0.56933594 54.35595703 C0.3024739 59.89112706 -0.37527893 63.07425711 -3.125 68.125 C-3.44976318 68.72393066 -3.77452637 69.32286133 -4.10913086 69.93994141 C-5.04643456 71.64139416 -6.0222069 73.32148865 -7 75 C-7.45246094 75.80953125 -7.90492188 76.6190625 -8.37109375 77.453125 C-9.5625 79.375 -9.5625 79.375 -12 82 C-14.8125 82.55859375 -14.8125 82.55859375 -18 82 C-20.14435793 79.9105474 -21.72119053 78.08779425 -23.4375 75.6875 C-24.14700806 74.73713867 -24.14700806 74.73713867 -24.87084961 73.76757812 C-31.90376262 64.23548422 -37.56079573 55.99336895 -39 44 C-39.21914062 44.95777344 -39.43828125 45.91554687 -39.6640625 46.90234375 C-41.41876683 54.34448231 -43.43658196 61.56520779 -46.0625 68.75 C-49.30989703 77.64926262 -51.92707183 86.5582321 -53 96 C-55.475 96.495 -55.475 96.495 -58 97 C-59.93164927 93.60779743 -60.69476443 90.32421706 -61.47265625 86.51171875 C-61.73240234 85.24779297 -61.99214844 83.98386719 -62.25976562 82.68164062 C-62.45759644 81.69707886 -62.45759644 81.69707886 -62.65942383 80.69262695 C-63.0593185 78.70332659 -63.46737042 76.71584144 -63.87695312 74.72851562 C-65.07944102 68.8300276 -66.19080595 62.96715358 -67 57 C-65 60 -65 60 -64 63.625 C-63.67 64.73875 -63.34 65.8525 -63 67 C-62.34 67.33 -61.68 67.66 -61 68 C-60.51342773 69.93359375 -60.51342773 69.93359375 -60.18359375 72.4375 C-60.05919922 73.33210938 -59.93480469 74.22671875 -59.80664062 75.1484375 C-59.68482422 76.08945313 -59.56300781 77.03046875 -59.4375 78 C-59.1897899 79.85464996 -58.9386711 81.70884892 -58.68359375 83.5625 C-58.57587646 84.38878906 -58.46815918 85.21507812 -58.35717773 86.06640625 C-58.18891633 88.00004955 -58.18891633 88.00004955 -57 89 C-56.95919217 90.99958364 -56.95745644 93.00045254 -57 95 C-56.34 95 -55.68 95 -55 95 C-55.04817871 93.83774902 -55.09635742 92.67549805 -55.14599609 91.47802734 C-55.14064087 87.14374556 -54.12762861 83.40600985 -52.6640625 79.3515625 C-52.42464935 78.65412933 -52.18523621 77.95669617 -51.93856812 77.23812866 C-51.17885966 75.02956905 -50.40323408 72.82709271 -49.625 70.625 C-43.83444848 55.01763848 -43.83444848 55.01763848 -41.75 38.625 C-41.74484375 37.83351562 -41.7396875 37.04203125 -41.734375 36.2265625 C-42.03688135 33.69084748 -42.54955823 32.10547999 -44 30 C-47.56206661 29.18129815 -47.56206661 29.18129815 -51 29 C-50.14285714 20.42857143 -50.14285714 20.42857143 -48 17 C-46.1875 17.1875 -46.1875 17.1875 -44 18 C-42.375 20.4375 -42.375 20.4375 -41 23 C-40.34 23.66 -39.68 24.32 -39 25 C-38.46923828 27.57861328 -38.46923828 27.57861328 -38.0703125 30.8203125 C-37.91433594 31.9959375 -37.75835937 33.1715625 -37.59765625 34.3828125 C-37.28558796 36.85356805 -36.97820128 39.32491996 -36.67578125 41.796875 C-34.9551542 54.63862811 -29.95363919 61.90605859 -22 72 C-21.401875 72.76699219 -20.80375 73.53398437 -20.1875 74.32421875 C-18.86925122 75.94896037 -17.44465697 77.48654984 -16 79 C-15.01 79 -14.02 79 -13 79 C-11.28073508 76.71066302 -9.81715907 74.51914538 -8.375 72.0625 C-7.96983154 71.37317383 -7.56466309 70.68384766 -7.1472168 69.97363281 C-1.94769341 60.76990362 -2.83524098 54.10220878 -5 44 C-5.55717852 41.23208089 -6.09214555 38.46018715 -6.625 35.6875 C-6.7600293 35.01775146 -6.89505859 34.34800293 -7.03417969 33.65795898 C-7.79909607 29.71392034 -8.13693723 26.01475074 -8 22 C-7.01 22.33 -6.02 22.66 -5 23 C-4.81630859 21.52853516 -4.81630859 21.52853516 -4.62890625 20.02734375 C-4.02394744 15.79263208 -3.00875631 11.69989627 -1.9375 7.5625 C-1.75123047 6.83095703 -1.56496094 6.09941406 -1.37304688 5.34570312 C-0.9186242 3.56296802 -0.45977534 1.78136213 0 0 Z M-47 20 C-48.485 23.96 -48.485 23.96 -50 28 C-47.36 28.33 -44.72 28.66 -42 29 C-42.55728913 25.65626525 -43.35173889 22.96687001 -45 20 C-45.66 20 -46.32 20 -47 20 Z " fill="#040404" transform="translate(142,92)"/>
<path d="M0 0 C3.20703125 0.1484375 3.20703125 0.1484375 6.08203125 2.3984375 C7.96814479 4.83929032 8.87297592 6.14193954 9.20703125 9.1484375 C8.54703125 9.1484375 7.88703125 9.1484375 7.20703125 9.1484375 C7.20703125 11.4584375 7.20703125 13.7684375 7.20703125 16.1484375 C5.88703125 16.1484375 4.56703125 16.1484375 3.20703125 16.1484375 C2.65015625 15.4884375 2.09328125 14.8284375 1.51953125 14.1484375 C-1.53435624 11.50723751 -3.36485396 11.76405781 -7.28125 11.9453125 C-8.52455078 12.04585937 -8.52455078 12.04585937 -9.79296875 12.1484375 C-10.67339844 12.21546875 -11.55382812 12.2825 -12.4609375 12.3515625 C-16.3383625 12.6952043 -20.0306594 13.12391848 -23.79296875 14.1484375 C-23.79296875 12.8284375 -23.79296875 11.5084375 -23.79296875 10.1484375 C-24.78296875 10.4784375 -25.77296875 10.8084375 -26.79296875 11.1484375 C-25.16928573 6.92686166 -22.74350702 3.37924845 -18.79296875 1.1484375 C-12.54743609 0.06317117 -6.31214949 0.24702542 0 0 Z " fill="#252525" transform="translate(110.79296875,53.8515625)"/>
<path d="M0 0 C2.89614093 1.3737342 4.74393232 2.74393232 7 5 C7.99 5.33 8.98 5.66 10 6 C10 6.66 10 7.32 10 8 C11.99054876 8.69437747 13.99255385 9.35610218 16 10 C16.804375 10.309375 17.60875 10.61875 18.4375 10.9375 C22.01195034 11.02468172 23.55186068 9.37396782 26.28515625 7.21484375 C28.44462172 5.68501742 30.38286432 5.23792143 33 5 C31.84316231 7.93376706 31.12327263 9.75572584 29 12 C25.59823462 13.01513481 22.22052876 12.98054767 18.6875 13 C10.43987374 13.02779368 10.43987374 13.02779368 3.83203125 17.5625 C2.86170713 18.68613731 1.90749291 19.82503348 1 21 C1.66 21.33 2.32 21.66 3 22 C3 23.32 3 24.64 3 26 C4.98 25.34 6.96 24.68 9 24 C6.79133632 27.4873637 4.95253048 28.81424086 1 30 C0.01 30 -0.98 30 -2 30 C-2 30.66 -2 31.32 -2 32 C-0.58249437 31.88490339 0.83401169 31.75746342 2.25 31.625 C3.03890625 31.55539063 3.8278125 31.48578125 4.640625 31.4140625 C6.99377837 31.11728633 6.99377837 31.11728633 8.91015625 30.04296875 C13.6826473 27.6611835 18.7805315 27.11689273 24 28 C28.62472017 31.75237351 32.10997991 36.32993972 34 42 C34.99 42.33 35.98 42.66 37 43 C33.57056481 44.18771723 31.62215325 43.80226223 28.25 42.5625 C27.45078125 42.27503906 26.6515625 41.98757812 25.828125 41.69140625 C25.22484375 41.46324219 24.6215625 41.23507813 24 41 C24.66 40.34 25.32 39.68 26 39 C24.8493118 36.18597726 24.30679585 34.87359792 22 33 C17.82518724 32.23362812 13.72534039 32.48458817 9.5 32.6875 C7.23969907 32.75773534 4.97928016 32.82429518 2.71875 32.88671875 C1.21731445 32.95185669 1.21731445 32.95185669 -0.31445312 33.01831055 C-2.75614561 33.00166264 -4.67950781 32.71635884 -7 32 C-5.15684508 24.01299534 0.97114488 17.3398431 7 12 C7.66 12 8.32 12 9 12 C6.53974941 7.48954059 3.39717963 3.81495577 0 0 Z " fill="#8E8E8E" transform="translate(84,42)"/>
<path d="M0 0 C2.96610853 1.48305427 3.14516939 3.84981246 4.16210938 6.83789062 C4.41798828 7.61326172 4.67386719 8.38863281 4.9375 9.1875 C6.33086891 13.36760674 7.6778311 17.37128701 9.69140625 21.30078125 C11 24 11 24 11 28 C11.66 28 12.32 28 13 28 C13.14695312 27.14728516 13.14695312 27.14728516 13.296875 26.27734375 C14.36323919 20.77085969 15.98284249 16.7268801 19 12 C19.99 12.33 20.98 12.66 22 13 C23.86295889 12.99021368 25.72588431 12.92087499 27.5859375 12.81640625 C29.22949219 12.75743164 29.22949219 12.75743164 30.90625 12.69726562 C33.21217526 12.60767731 35.51720275 12.4906267 37.8203125 12.34570312 C41.0640429 12.25623404 43.84038406 12.24855149 47 13 C49.48101749 15.36199484 50.80507834 17.81069932 52 21 C49.31264369 21.14929757 47.48472089 21.25017853 45.0625 20 C42.19198684 18.60823604 40.14573597 18.59841668 37 19 C35.08743288 20.88077873 35.08743288 20.88077873 34 23 C33.01 22.67 32.02 22.34 31 22 C30.505 19.525 30.505 19.525 30 17 C26.7 16.67 23.4 16.34 20 16 C19.61908203 17.32064453 19.61908203 17.32064453 19.23046875 18.66796875 C18.88628906 19.82941406 18.54210937 20.99085937 18.1875 22.1875 C17.68283203 23.91033203 17.68283203 23.91033203 17.16796875 25.66796875 C16.07355198 28.79016776 14.92627443 31.31534982 13 34 C12.34 34 11.68 34 11 34 C10.72285156 33.21753906 10.44570312 32.43507812 10.16015625 31.62890625 C9.79792969 30.61699219 9.43570313 29.60507813 9.0625 28.5625 C8.70285156 27.55316406 8.34320313 26.54382813 7.97265625 25.50390625 C7.23122361 23.09686255 7.23122361 23.09686255 6 22 C6 25.96 6 29.92 6 34 C3.1560281 29.73404215 2.7589929 25.37119691 1.875 20.375 C1.60236328 18.93447266 1.60236328 18.93447266 1.32421875 17.46484375 C0.25595765 11.5452315 -0.18598048 6.01336884 0 0 Z " fill="#5A5A5A" transform="translate(59,61)"/>
<path d="M0 0 C1.4540625 0.0309375 1.4540625 0.0309375 2.9375 0.0625 C2.9375 0.3925 2.9375 0.7225 2.9375 1.0625 C1.968125 1.371875 0.99875 1.68125 0 2 C-2.90315792 2.75773342 -2.90315792 2.75773342 -4.0625 4.0625 C-2.7425 4.3925 -1.4225 4.7225 -0.0625 5.0625 C-0.0625 5.7225 -0.0625 6.3825 -0.0625 7.0625 C1.9175 7.0625 3.8975 7.0625 5.9375 7.0625 C6.2675 8.0525 6.5975 9.0425 6.9375 10.0625 C10.2375 10.7225 13.5375 11.3825 16.9375 12.0625 C16.6075 12.7225 16.2775 13.3825 15.9375 14.0625 C13.9787957 13.92173685 12.02053907 13.7747324 10.0625 13.625 C8.97195312 13.54378906 7.88140625 13.46257812 6.7578125 13.37890625 C3.9375 13.0625 3.9375 13.0625 1.9375 12.0625 C-0.20496318 11.82747095 -0.20496318 11.82747095 -2.5625 11.8125 C-3.3565625 11.78671875 -4.150625 11.7609375 -4.96875 11.734375 C-5.6596875 11.84265625 -6.350625 11.9509375 -7.0625 12.0625 C-8.0525 13.5475 -8.0525 13.5475 -9.0625 15.0625 C-7.33 15.2171875 -7.33 15.2171875 -5.5625 15.375 C1.922761 16.3238359 8.30303565 19.62679525 14.9375 23.0625 C14.9375 23.7225 14.9375 24.3825 14.9375 25.0625 C9.19600338 24.32166173 4.1510705 21.5860653 -1.0234375 19.1328125 C-4.52178243 17.52876788 -7.20507458 16.71182496 -11.0625 17.0625 C-8.64608325 22.19738558 -4.87324355 25.24417059 -0.0625 28.0625 C2.63066358 29.02728356 5.10625655 29.55692081 7.9375 30.0625 C7.6075 30.7225 7.2775 31.3825 6.9375 32.0625 C5.9475 32.0625 4.9575 32.0625 3.9375 32.0625 C3.6075 33.3825 3.2775 34.7025 2.9375 36.0625 C2.9375 35.299375 2.9375 34.53625 2.9375 33.75 C2.25781931 30.98266119 2.25781931 30.98266119 0.265625 30.23828125 C-1.14808297 29.77856042 -2.56492224 29.32838301 -3.984375 28.88671875 C-7.17896126 27.619693 -8.83684782 25.63591033 -11.0625 23.0625 C-11.3925 24.3825 -11.7225 25.7025 -12.0625 27.0625 C-12.206875 26.258125 -12.35125 25.45375 -12.5 24.625 C-12.80385249 22.14146294 -12.80385249 22.14146294 -14.0625 21.0625 C-14.77745414 15.73098484 -14.79296521 11.39079667 -11.5625 6.9375 C-10.7375 5.98875 -9.9125 5.04 -9.0625 4.0625 C-8.0725 4.3925 -7.0825 4.7225 -6.0625 5.0625 C-5.753125 4.423125 -5.44375 3.78375 -5.125 3.125 C-3.5525 0.0725 -3.5525 0.0725 0 0 Z " fill="#565656" transform="translate(99.0625,78.9375)"/>
<path d="M0 0 C0.33 0 0.66 0 1 0 C0.66374982 6.99400372 -0.74272627 13.48737318 -2.62792969 20.20117188 C-4.71437127 27.91143491 -3.88727002 34.66052527 -2.5625 42.375 C-2.15589527 44.78739172 -1.75563848 47.19991073 -1.37597656 49.61669922 C-1.12626748 51.19959537 -0.85748962 52.77960608 -0.56933594 54.35595703 C0.3024739 59.89112706 -0.37527893 63.07425711 -3.125 68.125 C-3.44976318 68.72393066 -3.77452637 69.32286133 -4.10913086 69.93994141 C-5.04643456 71.64139416 -6.0222069 73.32148865 -7 75 C-7.45246094 75.80953125 -7.90492188 76.6190625 -8.37109375 77.453125 C-9.5625 79.375 -9.5625 79.375 -12 82 C-14.8125 82.55859375 -14.8125 82.55859375 -18 82 C-20.14425299 79.91064964 -21.72103656 78.08751356 -23.4375 75.6875 C-23.90978027 75.05610107 -24.38206055 74.42470215 -24.86865234 73.77416992 C-37.19052529 57.09784034 -37.19052529 57.09784034 -37 47 C-36.67 47 -36.34 47 -36 47 C-35.91105469 47.54785156 -35.82210937 48.09570312 -35.73046875 48.66015625 C-33.64088709 57.90542762 -27.82154599 64.76329298 -22 72 C-21.47615723 72.66467285 -20.95231445 73.3293457 -20.41259766 74.01416016 C-19.63021729 74.97588135 -19.63021729 74.97588135 -18.83203125 75.95703125 C-18.36128174 76.54073486 -17.89053223 77.12443848 -17.40551758 77.72583008 C-15.9457449 79.33582043 -15.9457449 79.33582043 -13 79 C-11.28073508 76.71066302 -9.81715907 74.51914538 -8.375 72.0625 C-7.96983154 71.37317383 -7.56466309 70.68384766 -7.1472168 69.97363281 C-1.94769341 60.76990362 -2.83524098 54.10220878 -5 44 C-5.55717852 41.23208089 -6.09214555 38.46018715 -6.625 35.6875 C-6.82754395 34.6828772 -6.82754395 34.6828772 -7.03417969 33.65795898 C-7.79909607 29.71392034 -8.13693723 26.01475074 -8 22 C-7.01 22.33 -6.02 22.66 -5 23 C-4.81630859 21.52853516 -4.81630859 21.52853516 -4.62890625 20.02734375 C-4.02394744 15.79263208 -3.00875631 11.69989627 -1.9375 7.5625 C-1.75123047 6.83095703 -1.56496094 6.09941406 -1.37304688 5.34570312 C-0.9186242 3.56296802 -0.45977534 1.78136213 0 0 Z " fill="#191919" transform="translate(142,92)"/>
<path d="M0 0 C8.869678 7.79456551 13.12121999 17.7530893 16 29 C16.31453125 28.09378906 16.6290625 27.18757813 16.953125 26.25390625 C19.37335728 19.36499208 21.91586349 12.62518213 25 6 C27 8 27 8 27.046875 10.14453125 C26.71802147 13.099886 26.3811146 16.05081411 26 19 C25.85175781 20.17046875 25.70351562 21.3409375 25.55078125 22.546875 C24.27620968 31.72379032 24.27620968 31.72379032 22 34 C22.33 29.05 22.66 24.1 23 19 C22.401875 20.52625 21.80375 22.0525 21.1875 23.625 C19.62901234 27.52953848 17.95711651 31.28147863 16 35 C13.26783622 33.63391811 13.17186665 32.2709614 12.125 29.4375 C9.23840199 21.96003948 5.99439863 15.30871406 1 9 C0.34 9 -0.32 9 -1 9 C-1.07427838 5.65747276 -1.06546953 3.1964086 0 0 Z " fill="#616161" transform="translate(119,60)"/>
<path d="M0 0 C1.30078125 1.671875 1.30078125 1.671875 2.30078125 4.671875 C3.04328125 5.414375 3.78578125 6.156875 4.55078125 6.921875 C7.62788947 9.99898322 9.90441793 13.04309626 12.30078125 16.671875 C12.30078125 17.331875 12.30078125 17.991875 12.30078125 18.671875 C9.5859375 18.5859375 9.5859375 18.5859375 6.30078125 17.671875 C4.59033154 15.47396154 3.17964062 13.40228975 1.73828125 11.046875 C-0.87375024 7.19726972 -2.40434511 4.94157826 -7.09375 3.96484375 C-11.30030399 4.29060382 -15.01124596 4.79627863 -18.78515625 6.75390625 C-21.14228163 7.88436434 -22.85097909 7.87329381 -25.44921875 7.796875 C-26.2484375 7.77882813 -27.04765625 7.76078125 -27.87109375 7.7421875 C-28.474375 7.71898438 -29.07765625 7.69578125 -29.69921875 7.671875 C-29.69921875 7.011875 -29.69921875 6.351875 -29.69921875 5.671875 C-29.07273437 5.40632813 -28.44625 5.14078125 -27.80078125 4.8671875 C-26.98351562 4.51398438 -26.16625 4.16078125 -25.32421875 3.796875 C-24.10605469 3.27480469 -24.10605469 3.27480469 -22.86328125 2.7421875 C-20.56119576 1.74741433 -20.56119576 1.74741433 -18.69921875 -0.328125 C-3.77064732 -2.94717262 -3.77064732 -2.94717262 0 0 Z " fill="#EFEFEF" transform="translate(111.69921875,66.328125)"/>
<path d="M0 0 C0.33 0 0.66 0 1 0 C0.11316597 12.53236513 -0.79339433 25.08128395 -5 37 C-5.66 37 -6.32 37 -7 37 C-8.23759823 33.28720531 -8.35608897 29.68693654 -8.5625 25.8125 C-8.60568359 25.06291016 -8.64886719 24.31332031 -8.69335938 23.54101562 C-8.79922685 21.69421625 -8.9000976 19.84713166 -9 18 C-8.01 18 -7.02 18 -6 18 C-5.938125 17.071875 -5.87625 16.14375 -5.8125 15.1875 C-5.06985193 9.71890969 -2.40373236 4.9050332 0 0 Z " fill="#E8E8E8" transform="translate(142,78)"/>
<path d="M0 0 C1 2 1 2 1 6 C1.33 5.01 1.66 4.02 2 3 C5.875 4.75 5.875 4.75 7 7 C9.11015954 8.12706706 9.11015954 8.12706706 11.5625 9.125 C12.38878906 9.47820312 13.21507813 9.83140625 14.06640625 10.1953125 C15.02353516 10.59363281 15.02353516 10.59363281 16 11 C16 12.65 16 14.3 16 16 C16.66 16 17.32 16 18 16 C18.80967438 18.91482778 19.21845993 20.46113217 18.0625 23.3125 C17.711875 23.869375 17.36125 24.42625 17 25 C16.9175 23.9275 16.835 22.855 16.75 21.75 C15.927 17.63499999 15.0058238 16.71493763 12 14 C12 13.01 12 12.02 12 11 C10.68 11 9.36 11 8 11 C7.01 14.96 6.02 18.92 5 23 C0.45069987 17.54083985 -1.27624668 14.5171165 -1.1875 7.3125 C-1.18105469 6.15363281 -1.17460938 4.99476562 -1.16796875 3.80078125 C-1 1 -1 1 0 0 Z " fill="#767676" transform="translate(86,99)"/>
<path d="M0 0 C2.89614093 1.3737342 4.74393232 2.74393232 7 5 C7.99 5.33 8.98 5.66 10 6 C10 6.66 10 7.32 10 8 C11.99054876 8.69437747 13.99255385 9.35610218 16 10 C16.804375 10.309375 17.60875 10.61875 18.4375 10.9375 C22.01195034 11.02468172 23.55186068 9.37396782 26.28515625 7.21484375 C28.44462172 5.68501742 30.38286432 5.23792143 33 5 C31.84316231 7.93376706 31.12327263 9.75572584 29 12 C25.59823462 13.01513481 22.22052876 12.98054767 18.6875 13 C10.43987374 13.02779368 10.43987374 13.02779368 3.83203125 17.5625 C2.86170713 18.68613731 1.90749291 19.82503348 1 21 C1.66 21.33 2.32 21.66 3 22 C3 23.32 3 24.64 3 26 C3.66 26.33 4.32 26.66 5 27 C2.36 27 -0.28 27 -3 27 C-2.47178451 22.96443369 -1.40673398 20.82287252 1.3125 17.8125 C2.20388672 16.80123047 2.20388672 16.80123047 3.11328125 15.76953125 C4.98875536 14.01054621 6.65104323 13.01114033 9 12 C6.53974941 7.48954059 3.39717963 3.81495577 0 0 Z " fill="#5E5E5E" transform="translate(84,42)"/>
<path d="M0 0 C1.75070517 0.11470137 3.50057536 0.24219028 5.25 0.375 C6.22453125 0.44460937 7.1990625 0.51421875 8.203125 0.5859375 C10.92574085 0.98900633 12.70091363 1.50985143 15 3 C15.75 5.125 15.75 5.125 16 7 C15.34 7 14.68 7 14 7 C14 9.31 14 11.62 14 14 C10 14 10 14 7.25 11.625 C5 9 5 9 5 7 C4.01 7 3.02 7 2 7 C1.34 4.69 0.68 2.38 0 0 Z " fill="#090909" transform="translate(104,56)"/>
<path d="M0 0 C0.33 0 0.66 0 1 0 C1.79391085 3.45782199 2.58470512 6.91634994 3.375 10.375 C3.59671875 11.34050781 3.8184375 12.30601563 4.046875 13.30078125 C5.11086326 17.96355333 6.13630231 22.62497848 7.046875 27.3203125 C7.79558059 31.11974781 8.7209498 34.79940929 9.875 38.5 C10.38546875 40.13775391 10.38546875 40.13775391 10.90625 41.80859375 C12.20733056 45.60496095 13.75804737 49.24648234 15.4609375 52.87890625 C16.15979791 55.62877005 15.3364198 56.58566957 14 59 C9.81663325 51.61422966 7.61504344 44.4648575 5.875 36.1875 C5.63652344 35.10146484 5.39804688 34.01542969 5.15234375 32.89648438 C4.67173958 30.70778699 4.19717838 28.51775365 3.72875977 26.32641602 C2.74798596 21.84968464 1.66561456 17.39851917 0.57348633 12.94775391 C-0.26993205 8.6125332 -0.26783158 4.39442181 0 0 Z " fill="#2B2B2B" transform="translate(65,99)"/>
<path d="M0 0 C3.86804053 1.28934684 4.48143909 2.83854561 6.625 6.25 C7.23601562 7.20390625 7.84703125 8.1578125 8.4765625 9.140625 C11.85018539 15.47265565 10.57719402 19.77001993 8.875 26.4375 C6.54875743 36.02549231 4.76983438 45.64296267 3.1875 55.375 C3.07686218 56.0540036 2.96622437 56.7330072 2.85223389 57.43258667 C2.2259198 61.28699341 1.60892687 65.14281051 1 69 C0.67 69 0.34 69 0 69 C0.32385166 64.66590015 0.66053432 60.33290227 1 56 C1.0721875 55.01128906 1.144375 54.02257812 1.21875 53.00390625 C1.2909375 52.09511719 1.363125 51.18632813 1.4375 50.25 C1.49808594 49.45078125 1.55867187 48.6515625 1.62109375 47.828125 C2.36565169 42.27080595 3.79517064 36.84105594 5.10546875 31.39453125 C5.28400391 30.63849609 5.46253906 29.88246094 5.64648438 29.10351562 C6.01040712 27.56242761 6.38296397 26.02335562 6.76367188 24.48632812 C7.80054771 20.02125765 8.3107658 16.5141169 7 12 C5.35830472 9.97945196 3.69088222 7.97956942 2 6 C0.6875 2.625 0.6875 2.625 0 0 Z " fill="#232323" transform="translate(143,23)"/>
<path d="M0 0 C2.48283257 2.34432745 3.78381028 4.83225003 5 8 C2.31264369 8.14929757 0.48472089 8.25017853 -1.9375 7 C-4.80801316 5.60823604 -6.85426403 5.59841668 -10 6 C-11.91256712 7.88077873 -11.91256712 7.88077873 -13 10 C-13.99 9.67 -14.98 9.34 -16 9 C-16.33 6.36 -16.66 3.72 -17 1 C-11.35102905 -0.23571239 -5.72798911 -1.14718014 0 0 Z " fill="#1C1C1C" transform="translate(106,74)"/>
<path d="M0 0 C1.4540625 0.0309375 1.4540625 0.0309375 2.9375 0.0625 C2.9375 0.3925 2.9375 0.7225 2.9375 1.0625 C1.968125 1.371875 0.99875 1.68125 0 2 C-2.90315792 2.75773342 -2.90315792 2.75773342 -4.0625 4.0625 C-2.7425 4.3925 -1.4225 4.7225 -0.0625 5.0625 C-0.0625 5.7225 -0.0625 6.3825 -0.0625 7.0625 C1.9175 7.0625 3.8975 7.0625 5.9375 7.0625 C6.2675 8.0525 6.5975 9.0425 6.9375 10.0625 C10.2375 10.7225 13.5375 11.3825 16.9375 12.0625 C16.6075 12.7225 16.2775 13.3825 15.9375 14.0625 C13.97848546 13.94867347 12.0202662 13.82108875 10.0625 13.6875 C8.97195312 13.61789063 7.88140625 13.54828125 6.7578125 13.4765625 C3.9375 13.0625 3.9375 13.0625 1.9375 11.0625 C1.9375 10.4025 1.9375 9.7425 1.9375 9.0625 C0.50094146 8.98118537 -0.9369483 8.92316441 -2.375 8.875 C-3.17550781 8.84019531 -3.97601563 8.80539063 -4.80078125 8.76953125 C-7.58309766 9.12993493 -8.19463895 10.06906846 -10.0625 12.0625 C-11.0525 12.0625 -12.0425 12.0625 -13.0625 12.0625 C-13.0625 15.0325 -13.0625 18.0025 -13.0625 21.0625 C-13.3925 21.0625 -13.7225 21.0625 -14.0625 21.0625 C-14.55011453 15.67706845 -14.85329255 11.45191118 -11.5625 6.9375 C-10.7375 5.98875 -9.9125 5.04 -9.0625 4.0625 C-8.0725 4.3925 -7.0825 4.7225 -6.0625 5.0625 C-5.753125 4.423125 -5.44375 3.78375 -5.125 3.125 C-3.5525 0.0725 -3.5525 0.0725 0 0 Z " fill="#919191" transform="translate(99.0625,78.9375)"/>
<path d="M0 0 C1.8125 0.1875 1.8125 0.1875 4 1 C5.625 3.4375 5.625 3.4375 7 6 C7.66 6.66 8.32 7.32 9 8 C9.47697386 10.52030633 9.84254511 12.95732598 10.125 15.5 C10.20991699 16.21671875 10.29483398 16.9334375 10.38232422 17.671875 C10.99175199 23.12606961 11.23746896 28.51182859 11 34 C10.67 34 10.34 34 10 34 C9.67 30.37 9.34 26.74 9 23 C8.34 23 7.68 23 7 23 C6.86722656 22.36191406 6.73445313 21.72382813 6.59765625 21.06640625 C6.42105469 20.24011719 6.24445313 19.41382813 6.0625 18.5625 C5.88847656 17.73878906 5.71445313 16.91507813 5.53515625 16.06640625 C5.19247006 14.02338796 5.19247006 14.02338796 4 13 C1.67182036 12.63239269 -0.6618385 12.29758419 -3 12 C-2.14285714 3.42857143 -2.14285714 3.42857143 0 0 Z M1 3 C-0.485 6.96 -0.485 6.96 -2 11 C0.64 11.33 3.28 11.66 6 12 C5.44271087 8.65626525 4.64826111 5.96687001 3 3 C2.34 3 1.68 3 1 3 Z " fill="#060606" transform="translate(94,109)"/>
<path d="M0 0 C3.44958662 1.72479331 3.93071709 5.83536529 5.125 9.3125 C5.40214844 10.08529297 5.67929688 10.85808594 5.96484375 11.65429688 C7.27662491 15.41193602 8 17.93613641 8 22 C7.34 22 6.68 22 6 22 C6 25.96 6 29.92 6 34 C3.1560281 29.73404215 2.7589929 25.37119691 1.875 20.375 C1.60236328 18.93447266 1.60236328 18.93447266 1.32421875 17.46484375 C0.25595765 11.5452315 -0.18598048 6.01336884 0 0 Z " fill="#555555" transform="translate(59,61)"/>
<path d="M0 0 C0.33 0 0.66 0 1 0 C0.66374982 6.99400372 -0.74272627 13.48737318 -2.62792969 20.20117188 C-4.0402634 25.42032803 -4.57023311 30.14883446 -3.50390625 35.48046875 C-2.84222107 38.78889463 -2.90600238 41.94225451 -2.9375 45.3125 C-2.94652344 46.56675781 -2.95554688 47.82101563 -2.96484375 49.11328125 C-2.97644531 50.06589844 -2.98804688 51.01851562 -3 52 C-3.33 52 -3.66 52 -4 52 C-4.48343366 48.87564509 -4.96093059 45.75040869 -5.4375 42.625 C-5.57220703 41.75488281 -5.70691406 40.88476562 -5.84570312 39.98828125 C-6.75420375 34.00547226 -7.45572714 28.0267472 -8 22 C-7.01 22.33 -6.02 22.66 -5 23 C-4.87753906 22.01902344 -4.75507813 21.03804687 -4.62890625 20.02734375 C-4.02394744 15.79263208 -3.00875631 11.69989627 -1.9375 7.5625 C-1.75123047 6.83095703 -1.56496094 6.09941406 -1.37304688 5.34570312 C-0.9186242 3.56296802 -0.45977534 1.78136213 0 0 Z " fill="#242424" transform="translate(142,92)"/>
<path d="M0 0 C1.32 0 2.64 0 4 0 C4.185625 1.299375 4.37125 2.59875 4.5625 3.9375 C6.52658565 12.74822224 13.64423085 18.9919629 20 25 C19.01 25.33 18.02 25.66 17 26 C10.52070113 19.92565731 4.73594289 13.54911877 0 6 C0 5.34 0 4.68 0 4 C-0.66 4 -1.32 4 -2 4 C-1.34 2.68 -0.68 1.36 0 0 Z " fill="#191919" transform="translate(66,16)"/>
<path d="M0 0 C4.73411451 4.32833327 9.6243547 9.39380507 10.3125 16 C10.1578125 16.99 10.1578125 16.99 10 18 C5.53195417 15.76597708 3.67266538 13.14723939 1 9 C0.34 9 -0.32 9 -1 9 C-1.07427838 5.65747276 -1.06546953 3.1964086 0 0 Z " fill="#484848" transform="translate(119,60)"/>
<path d="M0 0 C5.96635429 5.63489017 9.57482208 11.21390247 12 19 C11.67 19.99 11.34 20.98 11 22 C9.32756577 19.71234889 7.66193073 17.42026108 6 15.125 C5.52304688 14.47402344 5.04609375 13.82304688 4.5546875 13.15234375 C1 8.2265625 1 8.2265625 1 6 C0.34 6 -0.32 6 -1 6 C-1.042721 4.33388095 -1.04063832 2.66617115 -1 1 C-0.67 0.67 -0.34 0.34 0 0 Z " fill="#D6D6D6" transform="translate(119,68)"/>
<path d="M0 0 C2 2 2 2 2.046875 4.14453125 C1.71802147 7.099886 1.3811146 10.05081411 1 13 C0.77763672 14.75570312 0.77763672 14.75570312 0.55078125 16.546875 C-0.72379032 25.72379032 -0.72379032 25.72379032 -3 28 C-2.67 23.05 -2.34 18.1 -2 13 C-2.99 13.495 -2.99 13.495 -4 14 C-4.68041782 8.72676192 -2.24786337 4.60611289 0 0 Z " fill="#5B5B5B" transform="translate(144,66)"/>
<path d="M0 0 C3.1484375 0.1328125 3.1484375 0.1328125 5.0859375 2.1328125 C5.4365625 2.7928125 5.7871875 3.4528125 6.1484375 4.1328125 C5.17132813 3.97683594 4.19421875 3.82085937 3.1875 3.66015625 C-1.03383012 3.06424125 -5.21686954 2.80443891 -9.4765625 2.6953125 C-10.21390625 2.64955078 -10.95125 2.60378906 -11.7109375 2.55664062 C-15.89117102 2.4680375 -15.89117102 2.4680375 -19.47631836 4.3984375 C-21.65823309 6.90132429 -22.80277873 8.68400184 -23.1640625 12.0078125 C-23.0609375 12.7090625 -22.9578125 13.4103125 -22.8515625 14.1328125 C-23.1815625 12.8128125 -23.5115625 11.4928125 -23.8515625 10.1328125 C-24.8415625 10.4628125 -25.8315625 10.7928125 -26.8515625 11.1328125 C-25.22787948 6.91123666 -22.80210077 3.36362345 -18.8515625 1.1328125 C-12.58774662 0.04436916 -6.33231639 0.21835574 0 0 Z " fill="#272727" transform="translate(110.8515625,53.8671875)"/>
<path d="M0 0 C3 1 3 1 4 3 C6.11015954 4.12706706 6.11015954 4.12706706 8.5625 5.125 C9.38878906 5.47820312 10.21507813 5.83140625 11.06640625 6.1953125 C12.02353516 6.59363281 12.02353516 6.59363281 13 7 C13 8.65 13 10.3 13 12 C13.66 12 14.32 12 15 12 C15.80967438 14.91482778 16.21845993 16.46113217 15.0625 19.3125 C14.711875 19.869375 14.36125 20.42625 14 21 C13.9175 19.9275 13.835 18.855 13.75 17.75 C12.927 13.63499999 12.0058238 12.71493763 9 10 C9 9.01 9 8.02 9 7 C7.68 7 6.36 7 5 7 C4.01 8.485 4.01 8.485 3 10 C2.690625 8.906875 2.38125 7.81375 2.0625 6.6875 C1.41662103 4.44592006 0.7376883 2.2130649 0 0 Z " fill="#666666" transform="translate(89,103)"/>
<path d="M0 0 C0.680625 0.721875 1.36125 1.44375 2.0625 2.1875 C7.56309323 7.62628881 12.36070075 10.52574927 20 12 C19.67 12.66 19.34 13.32 19 14 C18.01 14 17.02 14 16 14 C15.67 15.32 15.34 16.64 15 18 C15 17.236875 15 16.47375 15 15.6875 C14.32031931 12.92016119 14.32031931 12.92016119 12.328125 12.17578125 C10.91441703 11.71606042 9.49757776 11.26588301 8.078125 10.82421875 C4.88353874 9.557193 3.22565218 7.57341033 1 5 C0.67 6.32 0.34 7.64 0 9 C-0.84454356 5.62182575 -1.10844919 3.32534757 0 0 Z " fill="#8D8D8D" transform="translate(87,97)"/>
<path d="M0 0 C1.4540625 0.0309375 1.4540625 0.0309375 2.9375 0.0625 C2.9375 0.3925 2.9375 0.7225 2.9375 1.0625 C1.968125 1.371875 0.99875 1.68125 0 2 C-2.90315792 2.75773342 -2.90315792 2.75773342 -4.0625 4.0625 C-2.7425 4.7225 -1.4225 5.3825 -0.0625 6.0625 C-1.17625 6.145 -2.29 6.2275 -3.4375 6.3125 C-4.63375 6.56 -5.83 6.8075 -7.0625 7.0625 C-8.28777948 9.01271083 -8.28777948 9.01271083 -9.0625 11.0625 C-10.3825 11.3925 -11.7025 11.7225 -13.0625 12.0625 C-13.0625 15.0325 -13.0625 18.0025 -13.0625 21.0625 C-13.3925 21.0625 -13.7225 21.0625 -14.0625 21.0625 C-14.55011453 15.67706845 -14.85329255 11.45191118 -11.5625 6.9375 C-10.7375 5.98875 -9.9125 5.04 -9.0625 4.0625 C-8.0725 4.3925 -7.0825 4.7225 -6.0625 5.0625 C-5.753125 4.423125 -5.44375 3.78375 -5.125 3.125 C-3.5525 0.0725 -3.5525 0.0725 0 0 Z " fill="#A3A3A3" transform="translate(99.0625,78.9375)"/>
<path d="M0 0 C0.33 0.66 0.66 1.32 1 2 C2.91630347 2.23533551 4.8334429 2.46551192 6.75390625 2.6640625 C13.28383476 3.64071268 19.20584762 6.99945681 25 10 C25 10.66 25 11.32 25 12 C19.24028787 11.25681134 14.20939813 8.49478817 9.00390625 6.0703125 C5.67001531 4.56468433 3.74721427 4 0 4 C0 2.68 0 1.36 0 0 Z " fill="#A0A0A0" transform="translate(89,92)"/>
<path d="M0 0 C0.66 0.33 1.32 0.66 2 1 C-0.35735884 3.72957339 -2.58133526 4.88893396 -6 6 C-6.99 6 -7.98 6 -9 6 C-9 6.66 -9 7.32 -9 8 C-6.36 8 -3.72 8 -1 8 C-1 8.33 -1 8.66 -1 9 C-2.41655793 9.0272415 -3.83327045 9.04650467 -5.25 9.0625 C-6.43335937 9.07990234 -6.43335937 9.07990234 -7.640625 9.09765625 C-9.90691002 9.00385306 -11.8288895 8.63241063 -14 8 C-13.39816251 5.97954558 -12.72693904 3.97888961 -12 2 C-11.34 1.67 -10.68 1.34 -10 1 C-10 1.66 -10 2.32 -10 3 C-4.41499433 2.80101292 -4.41499433 2.80101292 0 0 Z " fill="#9F9F9F" transform="translate(91,66)"/>
<path d="M0 0 C3.87156769 1.81726647 7.20732813 4.1874734 10.68359375 6.66015625 C13.22587899 8.13065176 15.07359358 8.77093624 18 9 C19.98245138 8.25104372 19.98245138 8.25104372 21.6875 7 C22.780625 6.34 23.87375 5.68 25 5 C25.66 5.33 26.32 5.66 27 6 C20.01966352 11.9757223 20.01966352 11.9757223 16.375 12.0625 C13.5326818 10.7909366 10.74613144 9.468861 8 8 C8 7.34 8 6.68 8 6 C7.4225 5.938125 6.845 5.87625 6.25 5.8125 C3.11309013 4.67972699 1.90832496 2.65802405 0 0 Z " fill="#131313" transform="translate(86,42)"/>
<path d="M0 0 C0.33 0 0.66 0 1 0 C0.44210432 7.01524148 -0.18447923 14.00982196 -1 21 C-1.33 21 -1.66 21 -2 21 C-2.33 18.36 -2.66 15.72 -3 13 C-3.33 13.66 -3.66 14.32 -4 15 C-4.66 15 -5.32 15 -6 15 C-4.36041242 9.76727367 -2.61047965 4.84803364 0 0 Z " fill="#D3D3D3" transform="translate(142,78)"/>
<path d="M0 0 C0 3.67819168 -0.76843318 4.22382655 -3.1875 6.875 C-3.82429688 7.57367188 -4.46109375 8.27234375 -5.1171875 8.9921875 C-5.73851563 9.65476562 -6.35984375 10.31734375 -7 11 C-7.74636719 11.80824219 -7.74636719 11.80824219 -8.5078125 12.6328125 C-9.62417945 13.80265811 -10.80657891 14.90887214 -12 16 C-12.66 16 -13.32 16 -14 16 C-14.33 16.66 -14.66 17.32 -15 18 C-13.50850821 10.13109502 -5.84147455 4.87777951 0 0 Z " fill="#D5D5D5" transform="translate(128,36)"/>
<path d="M0 0 C1.8125 0.1875 1.8125 0.1875 4 1 C5.625 3.4375 5.625 3.4375 7 6 C7.66 6.66 8.32 7.32 9 8 C9.30059943 10.36509361 9.49515012 12.74441881 9.625 15.125 C9.69976562 16.40632813 9.77453125 17.68765625 9.8515625 19.0078125 C9.90054688 19.99523437 9.94953125 20.98265625 10 22 C9.67 22 9.34 22 9 22 C8.90203125 21.01257813 8.8040625 20.02515625 8.703125 19.0078125 C8.55359375 17.72648437 8.4040625 16.44515625 8.25 15.125 C8.04117188 13.21074219 8.04117188 13.21074219 7.828125 11.2578125 C7.35599986 7.91099877 7.35599986 7.91099877 4.921875 6.5546875 C4.28765625 6.37164062 3.6534375 6.18859375 3 6 C3 5.01 3 4.02 3 3 C2.34 3 1.68 3 1 3 C1 3.66 1 4.32 1 5 C0.01 5.33 -0.98 5.66 -2 6 C-1.34 4.02 -0.68 2.04 0 0 Z " fill="#161616" transform="translate(94,109)"/>
<path d="M0 0 C1.52600135 3.05200269 0.57754994 5.42788086 0.00390625 8.7578125 C-0.10848892 9.42086395 -0.22088409 10.08391541 -0.33668518 10.76705933 C-0.69755742 12.88746278 -1.06741528 15.00618701 -1.4375 17.125 C-1.68353545 18.56109649 -1.92898559 19.99729339 -2.17382812 21.43359375 C-2.77576109 24.95692017 -3.38576295 28.4787953 -4 32 C-4.33 32 -4.66 32 -5 32 C-2.81958763 2.81958763 -2.81958763 2.81958763 0 0 Z " fill="#0E0E0E" transform="translate(148,60)"/>
<path d="M0 0 C0.33 0 0.66 0 1 0 C1.11593506 0.55461914 1.23187012 1.10923828 1.35131836 1.68066406 C1.87924434 4.20394445 2.40836027 6.72697388 2.9375 9.25 C3.11990234 10.12269531 3.30230469 10.99539062 3.49023438 11.89453125 C3.66748047 12.73886719 3.84472656 13.58320312 4.02734375 14.453125 C4.18968506 15.22817383 4.35202637 16.00322266 4.51928711 16.80175781 C4.97361933 18.87936437 5.4726508 20.93984981 6 23 C5.01 22.67 4.02 22.34 3 22 C0.17008006 14.93102303 -0.45002858 7.53381176 0 0 Z " fill="#303030" transform="translate(53,37)"/>
<path d="M0 0 C2.30406875 3.45610312 2.72678343 6.42489058 3.25 10.4375 C3.353125 11.10587891 3.45625 11.77425781 3.5625 12.46289062 C4.07447898 16.26132293 4.20870418 18.7775995 2 22 C-0.29612756 7.40318907 -0.29612756 7.40318907 0 0 Z " fill="#808080" transform="translate(131,94)"/>
<path d="M0 0 C3.53586014 3.17320782 5.58578031 5.16743695 6 10 C4.0625 9.6875 4.0625 9.6875 2 9 C1.67 8.01 1.34 7.02 1 6 C0.34 6 -0.32 6 -1 6 C-1.042721 4.33388095 -1.04063832 2.66617115 -1 1 C-0.67 0.67 -0.34 0.34 0 0 Z " fill="#E1E1E1" transform="translate(119,68)"/>
<path d="M0 0 C2.1875 0 2.1875 0 5 1 C6.96188534 3.50803179 8.49921743 6.19641043 10 9 C9.01 9 8.02 9 7 9 C5.61876037 7.03277992 4.28511874 5.03131672 3 3 C2.34 2.67 1.68 2.34 1 2 C1 3.98 1 5.96 1 8 C0.34 8 -0.32 8 -1 8 C-0.67 5.36 -0.34 2.72 0 0 Z " fill="#0A0A0A" transform="translate(136,14)"/>
<path d="M0 0 C5.55216953 2.52371342 8.514344 7.20847864 12 12 C11.01 12.33 10.02 12.66 9 13 C7.4941255 11.21326795 5.9954515 9.42046492 4.5 7.625 C3.6646875 6.62726563 2.829375 5.62953125 1.96875 4.6015625 C0 2 0 2 0 0 Z " fill="#121212" transform="translate(115,161)"/>
<path d="M0 0 C2.42999536 2.27364177 3.42805835 3.68273845 4 7 C3.67 7 3.34 7 3 7 C3 10.96 3 14.92 3 19 C-0.01103265 14.48345102 -0.12682381 10.52637619 -0.0625 5.1875 C-0.05347656 4.21167969 -0.04445312 3.23585938 -0.03515625 2.23046875 C-0.02355469 1.49441406 -0.01195312 0.75835937 0 0 Z " fill="#9C9C9C" transform="translate(62,76)"/>
<path d="M0 0 C1.23556641 0.01740234 1.23556641 0.01740234 2.49609375 0.03515625 C3.32238281 0.04417969 4.14867188 0.05320312 5 0.0625 C5.63808594 0.07410156 6.27617188 0.08570312 6.93359375 0.09765625 C6.14984375 0.71640625 5.36609375 1.33515625 4.55859375 1.97265625 C1.96521728 3.99624286 1.96521728 3.99624286 -0.06640625 6.09765625 C-1.05640625 6.09765625 -2.04640625 6.09765625 -3.06640625 6.09765625 C-3.10912725 4.4315372 -3.10704457 2.7638274 -3.06640625 1.09765625 C-2.06640625 0.09765625 -2.06640625 0.09765625 0 0 Z " fill="#060606" transform="translate(94.06640625,75.90234375)"/>
<path d="M0 0 C2.89614093 1.3737342 4.74393232 2.74393232 7 5 C7.99 5.33 8.98 5.66 10 6 C10 6.66 10 7.32 10 8 C10.99 8.33 11.98 8.66 13 9 C13 9.66 13 10.32 13 11 C11.68 11.33 10.36 11.66 9 12 C8.62875 11.319375 8.2575 10.63875 7.875 9.9375 C5.56551696 6.31930991 2.84926874 3.19966425 0 0 Z " fill="#757575" transform="translate(84,42)"/>
<path d="M0 0 C2.05494031 3.08241046 3.36343791 6.00614832 4.75 9.4375 C5.21921875 10.57058594 5.6884375 11.70367187 6.171875 12.87109375 C7 16 7 16 6.140625 18.41015625 C5.76421875 18.93480469 5.3878125 19.45945313 5 20 C4.731875 19.030625 4.46375 18.06125 4.1875 17.0625 C3.14030341 13.35587608 1.88643537 9.73793621 0.5859375 6.11328125 C0 4 0 4 0 0 Z " fill="#6D6D6D" transform="translate(74,138)"/>
<path d="M0 0 C4.37934119 0.51958285 8.68803391 1.05675742 13 2 C13 2.99 13 3.98 13 5 C9.78548731 6.60725635 6.56387464 6.05748185 3 6 C3 5.67 3 5.34 3 5 C4.98 4.67 6.96 4.34 9 4 C6.03 3.01 3.06 2.02 0 1 C0 0.67 0 0.34 0 0 Z " fill="#DCDCDC" transform="translate(106,88)"/>
<path d="M0 0 C1.64826111 2.96687001 2.44271087 5.65626525 3 9 C3.66 9 4.32 9 5 9 C4.67 10.98 4.34 12.96 4 15 C-1.14240506 5.11075949 -1.14240506 5.11075949 -0.6875 1.5625 C-0.460625 1.046875 -0.23375 0.53125 0 0 Z " fill="#777777" transform="translate(67,80)"/>
<path d="M0 0 C0.66 0.33 1.32 0.66 2 1 C1.21681311 4.91593446 -0.39179858 8.36406635 -2 12 C-2.99 11.67 -3.98 11.34 -5 11 C-4.54625 10.113125 -4.0925 9.22625 -3.625 8.3125 C-2.27995701 5.57068159 -1.08961285 2.84975669 0 0 Z " fill="#6E6E6E" transform="translate(139,79)"/>
<path d="M0 0 C-0.0625 1.75 -0.0625 1.75 -1 4 C-3.24164322 5.59501537 -5.53566643 6.74543018 -8 8 C-5.18918919 0 -5.18918919 0 0 0 Z " fill="#C8C8C8" transform="translate(143,21)"/>
<path d="M0 0 C0.99 0 1.98 0 3 0 C3 2.97 3 5.94 3 9 C2.01 8.01 1.02 7.02 0 6 C0 5.34 0 4.68 0 4 C-0.66 4 -1.32 4 -2 4 C-1.34 2.68 -0.68 1.36 0 0 Z " fill="#535353" transform="translate(66,16)"/>
<path d="M0 0 C2.31 0 4.62 0 7 0 C6.34 0.66 5.68 1.32 5 2 C4.01 2 3.02 2 2 2 C2 2.66 2 3.32 2 4 C4.64 4 7.28 4 10 4 C10 4.33 10 4.66 10 5 C7.03 5 4.06 5 1 5 C0.67 3.35 0.34 1.7 0 0 Z " fill="#BEBEBE" transform="translate(80,70)"/>
<path d="M0 0 C4 6 4 6 5 8 C1.25 9.125 1.25 9.125 -1 8 C-1.625 4.9375 -1.625 4.9375 -2 2 C-1.34 2 -0.68 2 0 2 C0 1.34 0 0.68 0 0 Z " fill="#AEAEAE" transform="translate(131,88)"/>
<path d="M0 0 C0 0.33 0 0.66 0 1 C-0.969375 1.309375 -1.93875 1.61875 -2.9375 1.9375 C-5.84065792 2.69523342 -5.84065792 2.69523342 -7 4 C-5.68 4.66 -4.36 5.32 -3 6 C-5.64 6.66 -8.28 7.32 -11 8 C-8.71283018 1.49036283 -7.11151757 -0.47410117 0 0 Z " fill="#BEBEBE" transform="translate(102,79)"/>
<path d="M0 0 C0.99 0 1.98 0 3 0 C3.69710731 1.28650706 4.38242876 2.57940665 5.0625 3.875 C5.63677734 4.95394531 5.63677734 4.95394531 6.22265625 6.0546875 C6.47917969 6.69664063 6.73570313 7.33859375 7 8 C6.67 8.66 6.34 9.32 6 10 C5.66226563 9.4946875 5.32453125 8.989375 4.9765625 8.46875 C4.53054687 7.8190625 4.08453125 7.169375 3.625 6.5 C2.96371094 5.52546875 2.96371094 5.52546875 2.2890625 4.53125 C1.86367187 4.0259375 1.43828125 3.520625 1 3 C0.34 3 -0.32 3 -1 3 C-0.67 2.01 -0.34 1.02 0 0 Z " fill="#818181" transform="translate(119,66)"/>
<path d="M0 0 C0.99 0 1.98 0 3 0 C3.66 1.65 4.32 3.3 5 5 C3.68 4.67 2.36 4.34 1 4 C0.34 5.32 -0.32 6.64 -1 8 C-1.66 8 -2.32 8 -3 8 C-1.125 2.25 -1.125 2.25 0 0 Z " fill="#B5B5B5" transform="translate(63,20)"/>
<path d="M0 0 C1.45742463 -0.08096803 2.91612807 -0.13917774 4.375 -0.1875 C5.18710938 -0.22230469 5.99921875 -0.25710937 6.8359375 -0.29296875 C7.55007812 -0.19628906 8.26421875 -0.09960938 9 0 C9.66 0.99 10.32 1.98 11 3 C7.7 3 4.4 3 1 3 C0.67 2.01 0.34 1.02 0 0 Z " fill="#696969" transform="translate(92,87)"/>
<path d="M0 0 C0.99 0.495 0.99 0.495 2 1 C2.6328125 3.06640625 2.6328125 3.06640625 3.125 5.5625 C3.29257812 6.38878906 3.46015625 7.21507813 3.6328125 8.06640625 C3.75398438 8.70449219 3.87515625 9.34257813 4 10 C2.68 9.67 1.36 9.34 0 9 C0 6.03 0 3.06 0 0 Z " fill="#434343" transform="translate(59,61)"/>
<path d="M0 0 C2.475 0.495 2.475 0.495 5 1 C5 2.32 5 3.64 5 5 C5.66 5 6.32 5 7 5 C7.66 6.32 8.32 7.64 9 9 C8.01 9 7.02 9 6 9 C4.96210419 7.35666496 3.96432076 5.68756133 3 4 C2.01 3.34 1.02 2.68 0 2 C0 1.34 0 0.68 0 0 Z " fill="#747474" transform="translate(113,69)"/>
<path d="M0 0 C3.3125 -0.25 3.3125 -0.25 7 0 C8.9375 2 8.9375 2 10 4 C3.47692308 3.38461538 3.47692308 3.38461538 1.0625 1.4375 C0.711875 0.963125 0.36125 0.48875 0 0 Z " fill="#3F3F3F" transform="translate(107,54)"/>
<path d="M0 0 C0.66 0.33 1.32 0.66 2 1 C1.2884375 1.6496875 1.2884375 1.6496875 0.5625 2.3125 C-1.23686957 4.02309613 -1.23686957 4.02309613 -2 7 C-2.99 6.67 -3.98 6.34 -5 6 C-4.1875 3.5625 -4.1875 3.5625 -3 1 C-2.01 0.67 -1.02 0.34 0 0 Z " fill="#7F7F7F" transform="translate(115,47)"/>
<path d="M0 0 C2.84262206 1.42131103 3.59335994 3.18671989 5 6 C5.1875 8.8125 5.1875 8.8125 5 11 C1.7089159 7.39042389 0.45336079 4.87362847 0 0 Z " fill="#515151" transform="translate(86,111)"/>
<path d="M0 0 C3.73639216 1.24546405 4.18756513 2.63404953 6 6 C5.01 7.32 4.02 8.64 3 10 C2.690625 8.906875 2.38125 7.81375 2.0625 6.6875 C1.41662103 4.44592006 0.7376883 2.2130649 0 0 Z " fill="#515151" transform="translate(89,103)"/>
<path d="M0 0 C3.70129644 0.38961015 5.61879622 1.11749016 8 4 C1.25 3.25 1.25 3.25 -1 1 C-0.67 0.67 -0.34 0.34 0 0 Z " fill="#777777" transform="translate(113,82)"/>
<path d="M0 0 C1.35432675 1.31200404 2.68733482 2.64631404 4 4 C4 4.33 4 4.66 4 5 C0.85375007 5.26218749 -0.61837017 5.24754367 -3.3125 3.5 C-3.869375 3.005 -4.42625 2.51 -5 2 C-3.35 2 -1.7 2 0 2 C0 1.34 0 0.68 0 0 Z " fill="#464646" transform="translate(107,77)"/>
<path d="M0 0 C1.32 0.33 2.64 0.66 4 1 C3.34 2.98 2.68 4.96 2 7 C2.66 7 3.32 7 4 7 C4 7.66 4 8.32 4 9 C3.01 8.67 2.02 8.34 1 8 C0.67 5.36 0.34 2.72 0 0 Z " fill="#383838" transform="translate(89,75)"/>
<path d="M0 0 C1.9375 0.8125 1.9375 0.8125 4 2 C4.33 2.99 4.66 3.98 5 5 C4.01 5.33 3.02 5.66 2 6 C2 5.34 2 4.68 2 4 C1.34 4 0.68 4 0 4 C0 2.68 0 1.36 0 0 Z " fill="#565656" transform="translate(137,16)"/>
<path d="M0 0 C0.99 0.33 1.98 0.66 3 1 C2.67 3.97 2.34 6.94 2 10 C0.0044484 6.00889681 -0.19546065 4.30013434 0 0 Z " fill="#525252" transform="translate(134,114)"/>
<path d="M0 0 C0.99 0.33 1.98 0.66 3 1 C3.73046875 2.84765625 3.73046875 2.84765625 4.1875 5.0625 C4.34605469 5.79597656 4.50460938 6.52945312 4.66796875 7.28515625 C4.83232422 8.13400391 4.83232422 8.13400391 5 9 C1.9083091 6.47043472 1.09068668 3.77545388 0 0 Z " fill="#676767" transform="translate(143,23)"/>
</svg>
